# AST/ASF file generated using VICON BodyLanguage
# -----------------------------------------------
:version 1.10
:name VICON
:units
  mass 1.0
  length 0.45
  angle deg
:documentation
   .ast/.asf automatically generated from VICON data using
   VICON BodyBuilder and BodyLanguage model FoxedUp or BRILLIANT.MOD
:root
   order TX TY TZ RX RY RZ
   axis XYZ
   position 0 0 0  
   orientation 0 -0 0 
:bonedata
  begin
     id 1 
     name lhipjoint
     direction 0.500677 -0.737119 0.453848 
     length 2.34727 
     axis 0 -0 0  XYZ
  end
  begin
     id 2 
     name lfemur
     direction 0.34202 -0.939693 0  
     length 7.53653  
     axis 0 -0 20  XYZ
    dof rx ry rz
    limits (-160.0 20.0)
           (-70.0 70.0)
           (-60.0 70.0)
  end
  begin
     id 3 
     name ltibia
     direction 0.34202 -0.939693 0   
     length 6.85572   
     axis 0 -0 20   XYZ
    dof rx
    limits (-10.0 170.0)
  end
  begin
     id 4 
     name lfoot
     direction 0.155313 -0.426718 0.890949   
     length 2.18324   
     axis -90 -1.13533e-015 20   XYZ
    dof rx rz
    limits (-45.0 90.0)
           (-70.0 20.0)
  end
  begin
     id 5 
     name ltoes
     direction 1.53474e-011 -4.21647e-011 1   
     length 1.06748   
     axis -90 -1.13533e-015 20   XYZ
    dof rx
    limits (-90.0 20.0)
  end
  begin
     id 6 
     name rhipjoint
     direction -0.632471 -0.659587 0.406111   
     length 2.62319  
     axis 0 -0 0  XYZ 
  end
  begin
     id 7 
     name rfemur
     direction -0.34202 -0.939693 0   
     length 7.21735   
     axis 0 -0 -20   XYZ
    dof rx ry rz
    limits (-160.0 20.0)
           (-70.0 70.0)
           (-70.0 60.0)
  end
  begin
     id 8 
     name rtibia
     direction -0.34202 -0.939693 0   
     length 7.02558   
     axis 0 -0 -20   XYZ
    dof rx
    limits (-10.0 170.0)
 end
 begin
     id 9 
     name rfoot
     direction -0.16057 -0.441164 0.882945   
     length 2.10014  
     axis -90 1.13533e-015 -20   XYZ
    dof rx rz
    limits (-45.0 90.0)
           (-20.0 70.0)
  end
  begin
     id 10 
     name rtoes
     direction -1.53553e-011 -4.2192e-011 1   
     length 1.02554   
     axis -90 1.13533e-015 -20   XYZ
    dof rx
    limits (-90.0 20.0)
  end
  begin
     id 11 
     name lowerback
     direction 0.0401429 0.998861 -0.0258085   
     length 1.80848   
     axis 0 -0 0   XYZ
    dof rx ry rz
    limits (-20.0 45.0)
           (-30.0 30.0)
           (-30.0 30.0)
  end
  begin
     id 12 
     name upperback
     direction -0.0130978 0.999914 -0.000352645   
     length 1.8116   
     axis 0 -0 0   XYZ
    dof rx ry rz
    limits (-20.0 45.0)
           (-30.0 30.0)
           (-30.0 30.0)
  end
  begin
     id 13 
     name thorax
     direction -0.0300198 0.999453 0.0138573   
     length 1.81778   
     axis 0 -0 0   XYZ
    dof rx ry rz
    limits (-20.0 45.0)
           (-30.0 30.0)
           (-30.0 30.0)
  end
  begin
     id 14 
     name lowerneck
     direction -0.0401726 0.999191 -0.00173647   
     length 2.10594   
     axis 0 -0 0   XYZ
    dof rx ry rz
    limits (-20.0 45.0)
           (-30.0 30.0)
           (-30.0 30.0)
  end
  begin
     id 15 
     name upperneck
     direction 0.0119835 0.998501 0.0534085   
     length 2.07325   
     axis 0 -0 0   XYZ
    dof rx ry rz
    limits (-20.0 45.0)
           (-30.0 30.0)
           (-30.0 30.0)
  end
  begin
     id 16
     name head
     direction 0.00628309 0.999826 0.0175921  
     length 2.15096  
     axis 0 -0 0   XYZ
    dof rx ry rz
    limits (-20.0 45.0)
           (-30.0 30.0)
           (-30.0 30.0)
  end
  begin
     id 17 
     name lclavicle
     direction 0.895501 0.429681 -0.115981  
     length 4.18092  
     axis 0 -0 0   XYZ
    dof ry rz
    limits (-20.0 10.0)
           (0.0 20.0)
  end
  begin
     id 18 
     name lhumerus
     direction 1 -4.48961e-011 -3.38433e-028   
     length 5.77237   
     axis 180 -30 -90   XYZ
    dof rx ry rz
    limits (-60.0 90.0)
           (-90.0 90.0)
           (-90.0 90.0)
  end
  begin
     id 19
     name lradius
     direction 1 -4.4901e-011 1.11983e-026   
     length 2.91878   
     axis 180 -30 -90   XYZ
    dof rx
    limits (-10.0 170.0)
  end
  begin
     id 20
     name lwrist
     direction 1 -4.48934e-011 1.88176e-026   
     length 1.45939   
     axis -1.23311e-014 90 90   XYZ
    dof ry
    limits (-180.0 0.0)
 end
  begin
     id 21 
     name lhand
     direction 1 -4.4895e-011 3.76352e-026   
     length 1.06566   
     axis -2.40147e-014 90 90   XYZ
    dof rx rz
    limits (-90.0 90.0)
           (-45.0 45.0)
  end
  begin
     id 22 
     name lfingers
     direction 1 -4.49005e-011 7.52705e-026   
     length 0.859162   
     axis -4.80295e-014 90 90   XYZ
    dof rx
    limits (0.0 90.0)
  end
  begin
     id 23
     name lthumb
     direction 0.707107 -6.34885e-011 0.707107   
     length 1.23359   
     axis -90 45 -9.86935e-015   XYZ
    dof rx rz
    limits (-45.0 45.0)
           (-45.0 45.0)
  end
  begin
     id 24 
     name rclavicle
     direction -0.91006 0.40451 -0.0903492   
     length 4.23293  
     axis 0 -0 0   XYZ 
    dof ry rz
    limits (-10.0 20.0)
           (-20.0 0.0)
  end
  begin
     id 25 
     name rhumerus
     direction -1 -4.4897e-011 1.7415e-027  
     length 5.49854   
     axis 180 30 90   XYZ
    dof rx ry rz
    limits (-90.0 60.0)
           (-90.0 90.0)
           (-90.0 90.0)
  end
  begin
     id 26 
     name rradius
     direction -1 -4.48963e-011 1.21259e-026   
     length 3.1186   
     axis 180 30 90   XYZ
    dof rx
    limits (-10.0 170.0)
  end
  begin
     id 27 
     name rwrist
     direction -1 -4.48967e-011 1.88176e-026   
     length 1.5593   
     axis -1.23311e-014 -90 -90   XYZ
    dof ry
    limits (-180.0 0.0)
  end
  begin
     id 28
     name rhand
     direction -1 -4.4895e-011 3.76352e-026   
     length 0.71207   
     axis -2.40147e-014 -90 -90   XYZ
    dof rx rz
    limits (-90.0 90.0)
           (-45.0 45.0)
  end
  begin
     id 29
     name rfingers
     direction -1 -4.49005e-011 7.52705e-026   
     length 0.574089   
     axis -4.80295e-014 -90 -90   XYZ
    dof rx
    limits (0.0 90.0)
  end
  begin
     id 30
     name rthumb
     direction -0.707107 -6.34982e-011 0.707107   
     length 0.824281   
     axis -90 -45 9.86935e-015   XYZ
    dof rx rz
    limits (-45.0 45.0)
           (-45.0 45.0)
  end
:hierarchy
  begin
    root lhipjoint rhipjoint lowerback
    lhipjoint lfemur
    lfemur ltibia
    ltibia lfoot
    lfoot ltoes
    rhipjoint rfemur
    rfemur rtibia
    rtibia rfoot
    rfoot rtoes
    lowerback upperback
    upperback thorax
    thorax lowerneck lclavicle rclavicle
    lowerneck upperneck
    upperneck head
    lclavicle lhumerus
    lhumerus lradius
    lradius lwrist
    lwrist lhand lthumb
    lhand lfingers
    rclavicle rhumerus
    rhumerus rradius
    rradius rwrist
    rwrist rhand rthumb
    rhand rfingers
  end

#!OML:ASF C:\ViconDB\ViconDB\414\Spring2016\042216\male.ASF
:FULLY-SPECIFIED
:DEGREES
467
root 35.4811 17.6599 11.2743 -144.995 85.0328 -143.463
lowerback 0.0709882 -2.58959 5.36488
upperback -0.0932221 -3.43394 0.347231
thorax -0.429678 -1.72463 -2.61903
lowerneck -3.03157 4.29893 -1.72957
upperneck 5.06712 5.79908 0.949039
head 2.01954 2.88888 0.740828
rclavicle 5.0496e-014 1.54058e-015
rhumerus -32.209 -11.9109 -85.3764
rradius 25.9851
rwrist 34.2543
rhand 11.7339 -18.9846
rfingers 7.12502
rthumb 36.7689 -45.1084
lclavicle 5.0496e-014 1.54058e-015
lhumerus -36.4632 19.8233 81.6543
lradius 28.8841
lwrist -22.336
lhand -5.79827 10.3038
lfingers 7.12502
lthumb 20.0263 39.2918
rfemur -11.2106 -6.92097 27.1174
rtibia 22.1526
rfoot -11.4206 1.78943
rtoes -9.61342
lfemur -15.4915 -1.02615 -15.2098
ltibia 64.7496
lfoot -14.1052 10.2411
ltoes -14.7272
468
root 35.624 17.6599 11.2862 -140.255 85.3574 -138.668
lowerback 0.251799 -2.47733 5.59343
upperback -0.0783302 -3.27213 0.324218
thorax -0.516138 -1.64618 -2.76404
lowerneck -3.10444 4.40322 -1.5933
upperneck 5.26554 5.94444 0.775667
head 2.10476 2.9589 0.6739
rclavicle 5.34032e-014 -1.89839e-014
rhumerus -31.6303 -11.1594 -85.9803
rradius 26.4581
rwrist 33.5953
rhand 11.7288 -18.9896
rfingers 7.12502
rthumb 36.7642 -45.1147
lclavicle 5.34032e-014 -1.89839e-014
lhumerus -36.9618 20.3711 81.0482
lradius 28.7628
lwrist -22.2851
lhand -5.87312 10.5259
lfingers 7.12502
lthumb 19.9543 39.5214
rfemur -10.5076 -5.35098 27.3188
rtibia 22.0573
rfoot -11.6712 0.702921
rtoes -9.6803
lfemur -16.6808 -0.628491 -15.0597
ltibia 64.5098
lfoot -14.8857 10.353
ltoes -14.0269
469
root 35.7568 17.6562 11.3068 -137.356 85.4097 -135.802
lowerback 0.43721 -2.46954 5.65649
upperback -0.0847689 -3.24765 0.381799
thorax -0.624737 -1.63655 -2.73138
lowerneck -3.14449 4.48119 -1.61781
upperneck 5.36242 6.05704 0.684801
head 2.14445 3.01185 0.655675
rclavicle 2.83043e-014 -1.11319e-014
rhumerus -30.9487 -10.339 -86.5117
rradius 26.9339
rwrist 32.9513
rhand 11.8638 -18.9625
rfingers 7.12502
rthumb 36.8919 -45.0548
lclavicle 2.83043e-014 -1.11319e-014
lhumerus -37.4488 20.9014 80.5795
lradius 28.8302
lwrist -22.1433
lhand -5.5245 10.7881
lfingers 7.12502
lthumb 20.2894 39.7483
rfemur -9.96456 -4.13527 27.5906
rtibia 22.0068
rfoot -11.7907 -0.267021
rtoes -9.71842
lfemur -18.0396 -0.54637 -14.8006
ltibia 63.9709
lfoot -15.8142 10.0339
ltoes -14.311
470
root 35.911 17.6497 11.3134 -129.891 85.577 -128.29
lowerback 0.379307 -2.35113 6.00943
upperback -0.0170003 -3.09211 0.464138
thorax -0.522779 -1.55458 -2.85087
lowerneck -3.26204 4.56802 -1.66662
upperneck 5.6028 6.18785 0.571929
head 2.24542 3.07204 0.640679
rclavicle 2.9122e-014 -6.41081e-015
rhumerus -30.3901 -9.28221 -87.0894
rradius 27.5006
rwrist 32.1592
rhand 11.8236 -18.8052
rfingers 7.12502
rthumb 36.8539 -44.9073
lclavicle 2.9122e-014 -6.41081e-015
lhumerus -37.95 21.2681 80.2196
lradius 28.8896
lwrist -21.6453
lhand -5.46707 10.7721
lfingers 7.12502
lthumb 20.3446 39.7265
rfemur -9.28677 -2.64714 27.9702
rtibia 22.0043
rfoot -12.0695 -1.1934
rtoes -9.70403
lfemur -18.9988 -0.199554 -14.5432
ltibia 63.1337
lfoot -16.7672 10.2031
ltoes -14.0778
471
root 36.0532 17.6399 11.3227 -125.613 85.8281 -123.928
lowerback 0.579631 -2.29908 6.01434
upperback 0.00931238 -3.0086 0.496122
thorax -0.598696 -1.51412 -2.81424
lowerneck -3.33982 4.70794 -1.48697
upperneck 5.812 6.3905 0.238377
head 2.34352 3.16643 0.518866
rclavicle 2.89232e-014 1.799e-014
rhumerus -29.8113 -8.24629 -87.6441
rradius 28.186
rwrist 30.7707
rhand 11.7658 -19.1105
rfingers 7.12502
rthumb 36.7992 -45.2266
lclavicle 2.89232e-014 1.799e-014
lhumerus -38.4228 21.7399 79.8619
lradius 28.9106
lwrist -21.3693
lhand -5.38128 10.8272
lfingers 7.12502
lthumb 20.427 39.7728
rfemur -8.70333 -1.61892 28.0621
rtibia 22.1893
rfoot -12.2983 -1.75919
rtoes -10.7344
lfemur -19.892 0.00590551 -14.6062
ltibia 61.961
lfoot -17.5798 10.1812
ltoes -14.2288
472
root 36.1924 17.6317 11.3274 -121.491 85.8608 -119.918
lowerback 0.613835 -2.25427 6.29248
upperback -0.0331006 -2.94131 0.521671
thorax -0.668125 -1.48363 -2.94158
lowerneck -3.33313 4.78408 -1.54472
upperneck 5.90073 6.50639 0.103203
head 2.37348 3.21891 0.491075
rclavicle 1.08058e-014 -8.29926e-015
rhumerus -29.3018 -7.3478 -88.1325
rradius 28.8307
rwrist 29.8435
rhand 11.5948 -19.219
rfingers 7.12502
rthumb 36.6374 -45.3763
lclavicle 1.08058e-014 -8.29926e-015
lhumerus -38.9468 22.4005 79.301
lradius 28.8989
lwrist -21.7767
lhand -5.10654 10.7646
lfingers 7.12502
lthumb 20.691 39.6816
rfemur -8.35795 -1.22584 28.2754
rtibia 22.3392
rfoot -12.9665 -1.99066
rtoes -9.80566
lfemur -20.9462 -0.0185262 -14.5294
ltibia 60.5076
lfoot -18.1344 10.3499
ltoes -13.9781
473
root 36.3314 17.63 11.3204 -119.902 86.3983 -118.427
lowerback 0.649364 -2.15176 6.27313
upperback -0.0632721 -2.80532 0.298692
thorax -0.716083 -1.41973 -3.16137
lowerneck -3.33476 4.83104 -1.32865
upperneck 6.00365 6.57921 -0.199845
head 2.42575 3.2507 0.364689
rclavicle 2.49847e-014 4.82053e-015
rhumerus -28.8082 -6.49851 -88.6327
rradius 29.5128
rwrist 29.1673
rhand 11.8724 -19.0856
rfingers 7.12502
rthumb 36.9 -45.1759
lclavicle 2.49847e-014 4.82053e-015
lhumerus -39.3589 22.6006 78.9169
lradius 28.8191
lwrist -22.0557
lhand -5.23235 10.5511
lfingers 7.12502
lthumb 20.5702 39.4813
rfemur -8.00679 -1.32081 27.8129
rtibia 22.5019
rfoot -13.4772 -1.58192
rtoes -9.39825
lfemur -21.7782 -0.174238 -15.1365
ltibia 58.7263
lfoot -18.7405 10.6833
ltoes -13.7523
474
root 36.479 17.6285 11.3353 -112.603 86.4457 -111.095
lowerback 0.778702 -1.98448 6.62498
upperback -0.101119 -2.56833 0.22299
thorax -0.822873 -1.3071 -3.43562
lowerneck -3.28236 4.83371 -1.31065
upperneck 6.15923 6.58483 -0.191304
head 2.46826 3.25388 0.366131
rclavicle -2.18982e-014 -3.77691e-015
rhumerus -28.5034 -5.83917 -89.1271
rradius 30.2782
rwrist 28.2628
rhand 11.8709 -19.006
rfingers 7.12502
rthumb 36.8986 -45.0966
lclavicle -2.18982e-014 -3.77691e-015
lhumerus -39.7953 22.4152 78.6446
lradius 28.8095
lwrist -21.8174
lhand -5.30983 10.7163
lfingers 7.12502
lthumb 20.4957 39.6544
rfemur -7.44282 -1.21635 28.0595
rtibia 22.539
rfoot -13.7535 -1.29075
rtoes -9.554
lfemur -22.3819 -0.234057 -14.9754
ltibia 56.7062
lfoot -19.4415 10.8967
ltoes -12.9422
475
root 36.6267 17.6245 11.3503 -104.454 86.3593 -102.937
lowerback 0.606293 -1.84748 6.89935
upperback 0.0909792 -2.40367 0.255712
thorax -0.519642 -1.21067 -3.56952
lowerneck -3.49798 4.87101 -1.27098
upperneck 6.18545 6.64322 -0.311883
head 2.52216 3.2787 0.330801
rclavicle -1.24757e-014 1.963e-015
rhumerus -27.811 -5.07157 -89.6321
rradius 31.0331
rwrist 27.3837
rhand 11.5903 -19.1389
rfingers 7.12502
rthumb 36.6331 -45.2974
lclavicle -1.24757e-014 1.963e-015
lhumerus -39.8622 22.7635 78.3119
lradius 28.6455
lwrist -22.2741
lhand -5.28597 10.6177
lfingers 7.12502
lthumb 20.5186 39.5534
rfemur -6.87194 -1.15572 28.3886
rtibia 22.4932
rfoot -14.2155 -1.00338
rtoes -9.00774
lfemur -22.9424 -0.217171 -14.7344
ltibia 54.4932
lfoot -19.9016 11.2224
ltoes -12.911
476
root 36.7751 17.6281 11.36 -99.6302 86.4174 -98.1775
lowerback 0.430043 -1.75474 6.95968
upperback 0.182703 -2.29758 0.27817
thorax -0.315329 -1.14847 -3.59008
lowerneck -3.55136 4.90164 -1.36137
upperneck 6.15102 6.69965 -0.45873
head 2.52252 3.30034 0.302432
rclavicle 8.10397e-015 4.22417e-016
rhumerus -27.2663 -4.28543 -89.9244
rradius 31.8317
rwrist 26.6056
rhand 11.7295 -19.0206
rfingers 7.12502
rthumb 36.7648 -45.1455
lclavicle 8.10397e-015 4.22417e-016
lhumerus -39.9933 22.4095 78.5502
lradius 28.679
lwrist -21.6583
lhand -5.63023 10.877
lfingers 7.12502
lthumb 20.1878 39.848
rfemur -6.27899 -1.36145 28.4037
rtibia 22.2445
rfoot -14.4639 -0.509127
rtoes -8.75255
lfemur -23.4416 -0.391565 -14.7727
ltibia 51.9947
lfoot -19.0114 11.6816
ltoes -16.0801
477
root 36.9191 17.6225 11.3594 -98.4722 86.1385 -97.1645
lowerback 0.235927 -1.77655 7.4339
upperback 0.231283 -2.34143 0.343367
thorax -0.177239 -1.16341 -3.79445
lowerneck -3.74915 4.94818 -1.46558
upperneck 6.25937 6.77815 -0.517925
head 2.5934 3.33336 0.312115
rclavicle 2.50278e-014 -2.34069e-014
rhumerus -26.7828 -3.46436 -90.3078
rradius 32.7045
rwrist 25.4732
rhand 11.4293 -19.4976
rfingers 7.12502
rthumb 36.4807 -45.6945
lclavicle 2.50278e-014 -2.34069e-014
lhumerus -40.2684 23.2275 78.0616
lradius 28.5607
lwrist -22.4002
lhand -5.47831 10.781
lfingers 7.12502
lthumb 20.3338 39.7365
rfemur -5.73392 -2.12653 28.6569
rtibia 21.8859
rfoot -14.6773 0.231362
rtoes -8.75346
lfemur -24.015 -0.895581 -14.5461
ltibia 49.3529
lfoot -18.8519 12.3991
ltoes -17.2994
478
root 37.0656 17.6395 11.3624 -95.3826 86.5441 -94.1692
lowerback 0.114908 -1.7397 7.1423
upperback 0.260738 -2.30687 0.238352
thorax -0.0675192 -1.14282 -3.74542
lowerneck -3.74778 5.02413 -1.36652
upperneck 6.21043 6.8882 -0.744087
head 2.58872 3.38385 0.227127
rclavicle 4.19234e-015 5.81445e-015
rhumerus -26.3574 -2.80859 -90.602
rradius 33.4923
rwrist 24.8625
rhand 11.818 -19.2802
rfingers 7.12502
rthumb 36.8486 -45.3836
lclavicle 4.19234e-015 5.81445e-015
lhumerus -40.5336 23.5474 77.8244
lradius 28.5626
lwrist -22.6133
lhand -5.40722 10.9026
lfingers 7.12502
lthumb 20.4021 39.8508
rfemur -5.03942 -2.08795 28.2312
rtibia 21.4102
rfoot -14.7212 0.373898
rtoes -9.07552
lfemur -24.2618 -1.41783 -15.0221
ltibia 46.3933
lfoot -18.4486 13.3103
ltoes -18.1268
479
root 37.2108 17.6527 11.3679 -86.9331 86.3393 -85.9744
lowerback -0.0841127 -1.59635 7.44507
upperback 0.200977 -2.12945 0.288925
thorax -0.00566076 -1.05277 -3.8696
lowerneck -3.7584 5.08302 -1.39424
upperneck 6.2452 6.97359 -0.792435
head 2.60297 3.424 0.220364
rclavicle 1.23511e-014 -8.15017e-015
rhumerus -26.0933 -1.97557 -90.9765
rradius 34.2755
rwrist 24.1724
rhand 11.3584 -19.3056
rfingers 7.12502
rthumb 36.4135 -45.5195
lclavicle 1.23511e-014 -8.15017e-015
lhumerus -40.8285 23.8097 77.5378
lradius 28.5027
lwrist -22.5397
lhand -5.57342 10.8122
lfingers 7.12502
lthumb 20.2424 39.7775
rfemur -4.51457 -1.98948 28.4462
rtibia 20.8328
rfoot -14.7263 0.769994
rtoes -9.01135
lfemur -24.6441 -1.73341 -14.7859
ltibia 43.3218
lfoot -17.8797 14.2134
ltoes -19.1442
480
root 37.359 17.6658 11.3717 -81.4585 86.2513 -80.5849
lowerback -0.217488 -1.50933 7.60666
upperback 0.244139 -2.02743 0.289334
thorax 0.120917 -0.995652 -3.96527
lowerneck -3.97084 5.19633 -1.00759
upperneck 6.3444 7.14069 -1.27042
head 2.71026 3.49863 0.0203699
rclavicle 4.3952e-014 -7.50412e-015
rhumerus -25.7043 -1.20789 -91.2579
rradius 34.9659
rwrist 23.4156
rhand 11.4758 -19.2154
rfingers 7.12502
rthumb 36.5247 -45.4013
lclavicle 4.3952e-014 -7.50412e-015
lhumerus -40.9718 23.8189 77.4973
lradius 28.5626
lwrist -22.1591
lhand -5.35286 10.991
lfingers 7.12502
lthumb 20.4544 39.9336
rfemur -3.70328 -1.75466 28.5088
rtibia 20.1375
rfoot -14.6691 0.829057
rtoes -9.12788
lfemur -24.7217 -2.15823 -14.7244
ltibia 40.0886
lfoot -16.5542 14.8217
ltoes -19.8645
